<svg xmlns="http://www.w3.org/2000/svg" width="24" height="24" viewBox="0 0 24 24">
    <path fill="#9B9B9B" fill-rule="nonzero" d="M12 0C5.372 0 0 5.372 0 12s5.372 12 12 12 12-5.372 12-12S18.628 0 12 0zm7.291 19.291a10.259 10.259 0 0 1-3.279 2.21c-1.27.54-2.62.811-4.012.811-1.392 0-2.742-.271-4.012-.808a10.323 10.323 0 0 1-3.28-2.21 10.259 10.259 0 0 1-2.21-3.28A10.233 10.233 0 0 1 1.688 12c0-1.392.271-2.742.808-4.013a10.323 10.323 0 0 1 2.21-3.278 10.259 10.259 0 0 1 3.28-2.21c1.272-.54 2.622-.812 4.014-.812 1.392 0 2.742.272 4.012.81 1.229.52 2.33 1.262 3.28 2.21.946.946 1.692 2.05 2.21 3.278.539 1.273.81 2.623.81 4.015a10.253 10.253 0 0 1-3.02 7.291zm-4.52-2.753h-1.998V8.332a.843.843 0 0 0-.843-.844H9.68a.843.843 0 1 0 0 1.688h1.406v7.362H9.089a.843.843 0 1 0 0 1.688l1.997-.001h3.684a.843.843 0 1 0 0-1.688zm-3.685-11.37a.844.844 0 1 0 1.687 0 .844.844 0 0 0-1.687 0z"/>
</svg>
