<svg height="24" viewBox="0 0 24 24" width="24" xmlns="http://www.w3.org/2000/svg"><path d="m12 0c-6.628 0-12 5.372-12 12s5.372 12 12 12 12-5.372 12-12-5.372-12-12-12zm7.291 19.291a10.259 10.259 0 0 1 -3.279 2.21c-1.27.54-2.62.811-4.012.811s-2.742-.271-4.012-.808a10.323 10.323 0 0 1 -3.28-2.21 10.259 10.259 0 0 1 -2.21-3.28 10.233 10.233 0 0 1 -.81-4.014c0-1.392.271-2.742.808-4.013a10.323 10.323 0 0 1 2.21-3.278 10.259 10.259 0 0 1 3.28-2.21c1.272-.54 2.622-.812 4.014-.812s2.742.272 4.012.81c1.229.52 2.33 1.262 3.28 2.21.946.946 1.692 2.05 2.21 3.278.539 1.273.81 2.623.81 4.015a10.253 10.253 0 0 1 -3.02 7.291zm-4.52-2.753h-1.998v-8.206a.843.843 0 0 0 -.843-.844h-2.25a.843.843 0 1 0 0 1.688h1.406v7.362h-1.997a.843.843 0 1 0 0 1.688l1.997-.001h3.684a.843.843 0 1 0 0-1.688zm-3.685-11.37a.844.844 0 1 0 1.687 0 .844.844 0 0 0 -1.687 0z" fill="#9b9b9b"/></svg>