<svg xmlns="http://www.w3.org/2000/svg" width="140" height="127" viewBox="0 0 140 127">
    <defs>
        <linearGradient id="a" x1="0%" y1="91.145%" y2="8.855%">
            <stop offset="0%" stop-color="#F2994A"/>
            <stop offset="100%" stop-color="#F2C94C"/>
        </linearGradient>
    </defs>
    <path fill="url(#a)" fill-rule="evenodd" d="M138.063 73.126c-3.026-9.992-8.995-18.589-14.4-25.676-.476-.616-.952-1.254-1.428-1.87-2.38-3.096-4.847-6.28-6.806-9.714-2.38-4.132-4.202-8.93-5.433-14.262-.7-2.987-1.4-6.923-.673-10.69.728-3.794 1.959-8.346 4.93-9.77.027-.026.055-.026.082-.054l.027-.027.055-.054s.027-.028.027-.055.028-.027.028-.054c0-.028.027-.028.027-.055s.027-.027.027-.055c0-.027 0-.027.028-.054V.518a.6.6 0 0 0-.591-.502L113.94 0C103.409.474 93.156 5.277 86.52 12.866c-6.949 7.926-10.001 19.009-8.01 28.941 1.51 7.567 5.745 14.288 9.804 20.792 4.284 6.869 8.71 13.956 9.86 21.91.7 4.993.169 10.493-1.68 16.774a55.214 55.214 0 0 1-2.523 7.005 46.387 46.387 0 0 1-6.581 10.663 42.924 42.924 0 0 0 4.12-9.153c2.691-8.542 3.583-21.489-7.337-34.72-5.97-7.23-15.21-9.519-22.608-11.362-3.304-.806-6.445-1.591-8.261-2.622-1.428-.807-2.38-2.093-3.78-4.017-.925-1.254-1.96-2.683-3.36-4.242a55.878 55.878 0 0 0-2.298-2.458c0-.393 0-.78-.054-1.118-.422-3.767-3.502-7.31-6.079-8.292-1.51-.556-3.053-.305-4.12.698-.87.78-2.325 3.38-3.359 5.304-2.128.557-4.535 1.505-7.56 3.042-7.704 3.822-10.139 9.099-11.348 11.64-.142.277-.306.643-.394.779-.142.169-.279.365-.421.529-1.373 1.7-3.25 4.017-2.604 6.809.476 2.066 1.542 4.688 5.432 6.612 1.992.976 3.584 1.423 5.1 1.788-.646.142-1.177.278-1.68.393-2.801.643-3.447.807-5.406.752-2.604-.082-7.62.502-9.75 3.157C.224 84.198-.81 88.275.87 91.4c.842 1.564 2.998 4.104 8.207 3.657 1.066-.082 1.93-.305 2.856-.529 1.345-.332 3.025-.725 6.33-.976 1.149-.081 2.046.028 3.167.17 1.932.223 4.345.528 8.234-.197a3.372 3.372 0 0 0 2.72-3.936c-.334-1.842-2.101-3.042-3.95-2.71-2.857.53-4.4.333-6.161.11-1.258-.17-2.692-.333-4.48-.196-3.869.278-5.937.78-7.425 1.144-.755.17-1.291.306-1.822.366-1.094.081-1.543-.082-1.652-.142-.11-.278-.055-.976.109-1.45.673-.333 2.407-.753 4.257-.698 2.828.082 4.174-.224 7.145-.921.503-.11 1.094-.251 1.767-.393 2.604-.589 5.548-2.344 8.798-5.217.897-.807 1.318-2.039 1.067-3.21a3.395 3.395 0 0 0-2.271-2.514c-.925-.305-2.746-.867-4.536-1.396-.897-.25-1.68-.447-2.434-.616-1.51-.365-2.72-.616-4.257-1.395-1.204-.616-1.543-1.063-1.734-1.62.251-.446.842-1.144 1.149-1.564.197-.25.394-.474.558-.698.448-.589.755-1.226 1.121-2.011.98-2.121 2.632-5.665 8.207-8.456 3.223-1.592 5.548-2.486 7.37-2.764a3.348 3.348 0 0 0 2.467-1.788c.421-.84.87-1.646 1.258-2.344.143.305.252.616.28.921 0 .055.027.366-.083 1.03a3.3 3.3 0 0 0 1.007 3.016c.558.528 1.57 1.537 3.108 3.265 1.176 1.314 2.073 2.54 2.943 3.74 1.653 2.262 3.223 4.41 5.937 5.915 2.631 1.477 6.023 2.317 9.946 3.292 6.779 1.674 14.454 3.598 19.018 9.099 7.003 8.482 9.158 17.75 6.357 27.546-2.183 7.648-6.61 12.866-7.621 13.814a3.354 3.354 0 0 0-1.428 3.767c.782 2.682 3.392 2.486 3.392 2.486h.055c15.04-1.505 26.64-3.042 38.714-9.268 8.18-4.214 14.089-9.463 17.562-15.629 4.35-7.981 5.105-18.535 1.943-28.975l-.001.001z"/>
</svg>
