<svg xmlns="http://www.w3.org/2000/svg" width="20" height="31" viewBox="0 0 20 31">
    <defs>
        <linearGradient id="a" x1="28.388%" x2="71.612%" y1="100%" y2="0%">
            <stop offset="0%" stop-color="#04A5C0"/>
            <stop offset="100%" stop-color="#F9F981"/>
        </linearGradient>
    </defs>
    <path fill="url(#a)" fill-rule="nonzero" d="M237.76 58.4a1.364 1.364 0 0 1 1.912-.017L247 65.71l-.962.962-.005.006-6.36 6.36a1.364 1.364 0 0 1-1.929-1.928l4.035-4.036h-13.415a1.364 1.364 0 0 1 0-2.727h13.416l-4.036-4.036a1.364 1.364 0 0 1 .017-1.912zm-1.52-15c.525.525.532 1.376.016 1.91l-4.036 4.037h13.416a1.364 1.364 0 0 1 0 2.727h-13.415l4.035 4.036a1.364 1.364 0 0 1-1.928 1.928l-6.36-6.36-.006-.006-.962-.962 7.328-7.327a1.364 1.364 0 0 1 1.911.016z" transform="translate(-227 -43)"/>
</svg>
